<?xml version="1.0" standalone="no"?>
<!DOCTYPE svg PUBLIC "-//W3C//DTD SVG 20010904//EN"
 "http://www.w3.org/TR/2001/REC-SVG-20010904/DTD/svg10.dtd">
<svg version="1.0" xmlns="http://www.w3.org/2000/svg"
 width="512.000000pt" height="512.000000pt" viewBox="0 0 512.000000 512.000000"
 preserveAspectRatio="xMidYMid meet">

<g transform="translate(0.000000,512.000000) scale(0.100000,-0.100000)"
fill="#000000" stroke="none">
<path d="M2448 4414 c-178 -43 -322 -180 -369 -352 -64 -228 40 -466 252 -577
l72 -38 -7 -101 c-3 -55 -9 -143 -12 -193 l-7 -93 -199 0 -199 0 -31 36 c-49
56 -100 77 -174 72 -116 -7 -196 -91 -196 -207 0 -125 86 -211 212 -211 66 0
107 18 155 69 l39 41 188 0 188 0 0 -37 c0 -50 -88 -1442 -96 -1511 -5 -49 -7
-52 -27 -46 -278 84 -520 283 -665 546 -41 73 -104 247 -117 321 l-7 37 81 0
c69 0 84 3 102 21 14 14 19 28 15 44 -9 37 -313 558 -337 578 -29 23 -51 22
-76 -5 -24 -26 -323 -542 -330 -569 -3 -11 2 -30 11 -44 16 -24 22 -25 105
-25 l88 0 6 -108 c7 -122 37 -288 74 -406 103 -328 367 -632 688 -793 178 -90
364 -139 627 -168 115 -13 373 29 553 89 404 135 727 448 868 842 37 103 77
307 84 434 l6 110 88 0 c83 0 90 2 105 25 10 15 13 32 9 47 -16 51 -319 560
-342 576 -47 30 -65 7 -234 -285 -86 -149 -160 -281 -164 -293 -4 -13 0 -30 9
-45 15 -23 22 -25 102 -25 l86 0 -7 -33 c-78 -386 -357 -718 -711 -846 -48
-18 -89 -29 -92 -27 -5 6 -101 1454 -102 1539 l0 47 191 0 192 0 35 -36 c45
-47 88 -64 157 -64 160 0 257 163 183 307 -35 69 -92 106 -172 111 -74 5 -125
-16 -174 -72 l-31 -36 -199 0 -199 0 -6 88 c-4 48 -9 137 -12 197 l-6 110 70
33 c162 76 271 251 271 437 0 322 -303 564 -612 489z m179 -319 c48 -20 71
-41 94 -87 42 -82 11 -188 -67 -234 -123 -72 -274 13 -274 155 0 127 130 215
247 166z"/>
</g>
</svg>
