<?xml version="1.0" encoding="UTF-8"?>
<svg version="1.1" xmlns="http://www.w3.org/2000/svg" width="512" height="512">
<path d="M0 0 C28.38 0 56.76 0 86 0 C86 6.93 86 13.86 86 21 C87.85625 20.95359375 89.7125 20.9071875 91.625 20.859375 C94.08331718 20.82184344 96.54165184 20.78544477 99 20.75 C100.22074219 20.71648438 101.44148438 20.68296875 102.69921875 20.6484375 C111.59053651 20.55231515 117.25096352 21.33427544 123.8125 27.75 C127.80921199 33.6879721 130.20785872 39.71167065 129 47 C126.81744567 54.62594876 122.73510517 58.91595124 116.21875 63.16015625 C114 64 114 64 107 64 C107 77.86 107 91.72 107 106 C108.98 106.33 110.96 106.66 113 107 C116.04997956 109.65215614 117.64908912 111.26375398 118.44921875 115.22265625 C118.63774353 119.11666803 118.25461794 121.51113355 116.4375 125 C114 127 114 127 107 128 C107 219.41 107 310.82 107 405 C109.31 405.33 111.62 405.66 114 406 C116.58455285 407.89533875 116.96275506 408.88826517 118 412 C118.34222737 417.30452423 118.52076609 420.72478403 115 425 C111.99341882 427.03671629 110.80903404 427 107 427 C107 440.86 107 454.72 107 469 C109.97 469.33 112.94 469.66 116 470 C122.58081769 473.07862429 126.18322141 478.30665531 128.75 484.9375 C129.63830212 492.26599247 129.00297337 497.68627233 125 504 C121.27890587 508.04917203 116.99343098 511.71064217 111.37079358 512.25415033 C110.36203632 512.25610125 109.35327906 512.25805218 108.3139534 512.26006222 C107.14746867 512.26712781 105.98098395 512.2741934 104.7791512 512.2814731 C103.49668279 512.27905802 102.21421439 512.27664293 100.8928833 512.27415466 C99.51744633 512.27860646 98.14201193 512.28392031 96.7665813 512.29002339 C92.98291822 512.30422104 89.19933722 512.30586635 85.41565132 512.30542648 C81.33644024 512.30707314 77.25726312 512.32013686 73.17807007 512.33161926 C64.2565672 512.35448038 55.3350881 512.3623911 46.41355991 512.36744571 C40.84343931 512.3707015 35.27332562 512.37722327 29.70320892 512.3844471 C14.28260648 512.40401464 -1.13798953 512.42041789 -16.55860519 512.42332363 C-17.54563437 512.4235112 -18.53266355 512.42369877 -19.5496027 512.42389202 C-21.55057541 512.42425828 -23.55154813 512.42462198 -25.55252084 512.42498314 C-27.04246052 512.42525735 -27.04246052 512.42525735 -28.5625 512.42553711 C-29.55700484 512.42571766 -30.55150969 512.42589821 -31.57615104 512.42608423 C-47.69160266 512.42962605 -63.80692066 512.45664827 -79.92232594 512.494035 C-96.46587992 512.53210801 -113.00936759 512.55148104 -129.55296636 512.55178314 C-138.84237181 512.55236795 -148.1316179 512.56087476 -157.42098236 512.58978081 C-165.33096886 512.61428127 -173.24073787 512.62158667 -181.15075204 512.60653328 C-185.18626109 512.59935879 -189.22134058 512.60024458 -193.25680161 512.62294388 C-196.95322796 512.64353681 -200.64889459 512.64093148 -204.34531274 512.62006903 C-206.31162823 512.61492273 -208.27796097 512.63435141 -210.24417758 512.65473074 C-218.44350622 512.57678179 -223.54927433 511.24457611 -229.51273417 505.55733293 C-233.88800848 500.75628457 -235.51919937 495.67776902 -235.30859375 489.2109375 C-234.44930366 483.05450471 -232.23082548 477.67906866 -227.5625 473.5 C-222.51498424 469.69825409 -219.49756084 469 -213 469 C-213 455.14 -213 441.28 -213 427 C-215.31 426.67 -217.62 426.34 -220 426 C-222.58455285 424.10466125 -222.96275506 423.11173483 -224 420 C-224.34222737 414.69547577 -224.52076609 411.27521597 -221 407 C-217.99341882 404.96328371 -216.80903404 405 -213 405 C-213 313.59 -213 222.18 -213 128 C-216.465 127.505 -216.465 127.505 -220 127 C-222.66936945 124.80974814 -223.82281843 123.25821342 -224.30859375 119.80859375 C-224.42464885 115.66474404 -224.26454708 112.57600196 -222 109 C-218.76967782 107.07555275 -216.78176921 106 -213 106 C-213 92.14 -213 78.28 -213 64 C-215.31 64 -217.62 64 -220 64 C-226.53030704 61.44662735 -231.42722656 56.44512276 -234.3125 50.125 C-236.04284994 42.25977299 -234.99870979 35.99189606 -231 29 C-227.31228986 24.75301628 -222.86502735 21.37157134 -217.10353696 20.81768012 C-214.7616722 20.74785514 -212.42751201 20.7431949 -210.0846405 20.75949097 C-208.73678537 20.75692769 -208.73678537 20.75692769 -207.36170083 20.75431263 C-204.35067191 20.75101831 -201.33986582 20.76202057 -198.32885742 20.77294922 C-196.17051194 20.77351334 -194.01216606 20.77319675 -191.8538208 20.77206421 C-185.99270001 20.77148975 -180.13166087 20.7832592 -174.27055907 20.79721212 C-168.14597851 20.80970392 -162.02139614 20.81088876 -155.89680481 20.81326294 C-144.29822396 20.81948227 -132.69968075 20.83589923 -121.10111648 20.85596192 C-107.89690391 20.87830682 -94.69268957 20.88931081 -81.48846281 20.89935279 C-54.32562028 20.92026504 -27.16281384 20.95585211 0 21 C0 14.07 0 7.14 0 0 Z " fill="#333C49" transform="translate(309,0)"/>
<path d="M0 0 C1.42978868 -0.01145638 2.85953676 -0.03180664 4.2890625 -0.06152344 C15.16983659 -0.28640031 24.68455535 1.15510038 35.10083008 4.29516602 C36.33651733 4.66460327 36.33651733 4.66460327 37.59716797 5.04150391 C52.18546097 9.70399843 65.60343408 17.19556987 77.10083008 27.29516602 C78.29192383 28.27163086 78.29192383 28.27163086 79.50708008 29.26782227 C99.70775899 46.36808052 115.01758236 73.2314063 117.90600586 99.72338867 C119.07423069 115.14454207 119.57194327 131.36333515 115.10083008 146.29516602 C114.80281494 147.33858154 114.80281494 147.33858154 114.4987793 148.40307617 C105.2813919 180.29454613 84.4567839 205.11061337 55.61645508 221.24438477 C27.7559741 235.7734365 -3.92774954 238.7557379 -33.99291992 229.66186523 C-63.78862246 220.24489959 -88.42796487 199.11367916 -103.21166992 171.73266602 C-117.4766485 144.23141639 -120.77616651 111.27693705 -111.45776367 81.53735352 C-106.46927907 66.65698159 -99.29640676 53.10288072 -88.89916992 41.29516602 C-88.21338867 40.47790039 -87.52760742 39.66063477 -86.82104492 38.81860352 C-69.73505317 18.96689367 -43.11412403 3.10926406 -16.67285156 0.48266602 C-11.12012376 0.10730338 -5.5634142 0.03082747 0 0 Z " fill="#F7C862" transform="translate(254.899169921875,149.704833984375)"/>
<path d="M0 0 C52.8 0 105.6 0 160 0 C160 91.41 160 182.82 160 277 C107.2 277 54.4 277 0 277 C0 270.07 0 263.14 0 256 C4.021875 255.5978125 4.021875 255.5978125 8.125 255.1875 C40.48966256 251.63581435 69.10162909 238.45986356 90.30078125 213.265625 C111.22804161 186.51921279 119.12087951 154.701335 115.69970703 121.04589844 C114.89798849 115.57378644 113.61539428 110.2856196 112 105 C111.79101074 104.31196289 111.58202148 103.62392578 111.36669922 102.91503906 C106.52116598 87.57629489 98.68108906 74.00688858 88 62 C87.30390625 61.16082031 86.6078125 60.32164062 85.890625 59.45703125 C64.14165486 33.85833464 32.24781698 24.2247817 0 21 C0 14.07 0 7.14 0 0 Z " fill="#262E37" transform="translate(256,128)"/>
<path d="M0 0 C28.38 0 56.76 0 86 0 C86 6.93 86 13.86 86 21 C87.85625 20.95359375 89.7125 20.9071875 91.625 20.859375 C94.08331718 20.82184344 96.54165184 20.78544477 99 20.75 C100.22074219 20.71648438 101.44148438 20.68296875 102.69921875 20.6484375 C111.59053651 20.55231515 117.25096352 21.33427544 123.8125 27.75 C127.80921199 33.6879721 130.20785872 39.71167065 129 47 C126.85619138 54.49056939 122.847056 59.07896143 116.24404979 63.058209 C113.46414825 64.22488822 111.32833792 64.25423244 108.3139534 64.26006222 C107.14746867 64.26712781 105.98098395 64.2741934 104.7791512 64.2814731 C102.85544859 64.27785047 102.85544859 64.27785047 100.8928833 64.27415466 C99.51744633 64.27860646 98.14201193 64.28392031 96.7665813 64.29002339 C92.98291822 64.30422104 89.19933722 64.30586635 85.41565132 64.30542648 C81.33644024 64.30707314 77.25726312 64.32013686 73.17807007 64.33161926 C64.2565672 64.35448038 55.3350881 64.3623911 46.41355991 64.36744571 C40.84343931 64.3707015 35.27332562 64.37722327 29.70320892 64.3844471 C14.28260648 64.40401464 -1.13798953 64.42041789 -16.55860519 64.42332363 C-17.54563437 64.4235112 -18.53266355 64.42369877 -19.5496027 64.42389202 C-21.55057541 64.42425828 -23.55154813 64.42462198 -25.55252084 64.42498314 C-27.04246052 64.42525735 -27.04246052 64.42525735 -28.5625 64.42553711 C-29.55700484 64.42571766 -30.55150969 64.42589821 -31.57615104 64.42608423 C-47.69160266 64.42962605 -63.80692066 64.45664827 -79.92232594 64.494035 C-96.46587992 64.53210801 -113.00936759 64.55148104 -129.55296636 64.55178314 C-138.84237181 64.55236795 -148.1316179 64.56087476 -157.42098236 64.58978081 C-165.33096886 64.61428127 -173.24073787 64.62158667 -181.15075204 64.60653328 C-185.18626109 64.59935879 -189.22134058 64.60024458 -193.25680161 64.62294388 C-196.95322796 64.64353681 -200.64889459 64.64093148 -204.34531274 64.62006903 C-206.31162823 64.61492273 -208.27796097 64.63435141 -210.24417758 64.65473074 C-218.44350622 64.57678179 -223.54927433 63.24457611 -229.51273417 57.55733293 C-233.88800848 52.75628457 -235.51919937 47.67776902 -235.30859375 41.2109375 C-234.31241797 34.07377939 -231.49684919 28.64017662 -225.87890625 24.15625 C-220.60976119 20.91369919 -216.10876567 20.71758959 -210.0846405 20.75949097 C-208.73678537 20.75692769 -208.73678537 20.75692769 -207.36170083 20.75431263 C-204.35067191 20.75101831 -201.33986582 20.76202057 -198.32885742 20.77294922 C-196.17051194 20.77351334 -194.01216606 20.77319675 -191.8538208 20.77206421 C-185.99270001 20.77148975 -180.13166087 20.7832592 -174.27055907 20.79721212 C-168.14597851 20.80970392 -162.02139614 20.81088876 -155.89680481 20.81326294 C-144.29822396 20.81948227 -132.69968075 20.83589923 -121.10111648 20.85596192 C-107.89690391 20.87830682 -94.69268957 20.88931081 -81.48846281 20.89935279 C-54.32562028 20.92026504 -27.16281384 20.95585211 0 21 C0 14.07 0 7.14 0 0 Z " fill="#3F4A59" transform="translate(309,0)"/>
<path d="M0 0 C1.16150898 -0.00644889 2.32301797 -0.01289778 3.51972419 -0.0195421 C4.79149786 -0.01644489 6.06327153 -0.01334769 7.37358379 -0.01015663 C8.7416338 -0.01389366 10.10968167 -0.01849539 11.47772616 -0.02388728 C15.23633151 -0.03612628 18.9948479 -0.03585576 22.75346863 -0.03349853 C26.80743701 -0.03309059 30.86137678 -0.04412733 34.91533184 -0.05361366 C42.85761165 -0.0702296 50.79986177 -0.07572348 58.7421575 -0.07683842 C65.19792417 -0.07778862 71.65368104 -0.08189751 78.10944462 -0.08823967 C96.41144298 -0.10585376 114.71341787 -0.11507829 133.01542477 -0.11357872 C134.00217849 -0.11349881 134.98893222 -0.1134189 136.00558758 -0.11333656 C137.48752475 -0.11321392 137.48752475 -0.11321392 138.99940004 -0.1130888 C155.0113041 -0.11227587 171.02311409 -0.1314149 187.03499094 -0.1596133 C203.47461498 -0.18833662 219.91419314 -0.20215389 236.35384291 -0.20042574 C245.58396227 -0.19976165 254.81398302 -0.20526251 264.04407978 -0.22678185 C271.90278563 -0.24498639 279.76134817 -0.24934698 287.62006596 -0.235763 C291.62919467 -0.22922962 295.63804839 -0.22912927 299.64715099 -0.2464695 C303.31939443 -0.26218929 306.99114461 -0.25934823 310.66337594 -0.24190123 C312.6167074 -0.2373766 314.57005409 -0.25249731 316.52332622 -0.26838052 C325.09952459 -0.2009229 330.70597569 0.81924128 337.03464031 7.00726891 C341.0313523 12.945241 343.42999904 18.96893956 342.22214031 26.25726891 C340.0783317 33.7478383 336.06919631 38.33623034 329.4661901 42.31547791 C326.68628856 43.48215712 324.55047823 43.51150135 321.53609371 43.51733112 C320.36960899 43.52439671 319.20312426 43.53146231 318.00129151 43.53874201 C316.0775889 43.53511938 316.0775889 43.53511938 314.11502361 43.53142357 C312.73958664 43.53587536 311.36415224 43.54118921 309.98872161 43.54729229 C306.20505853 43.56148995 302.42147753 43.56313525 298.63779163 43.56269538 C294.55858055 43.56434205 290.47940343 43.57740576 286.40021038 43.58888817 C277.47870751 43.61174928 268.55722841 43.61966 259.63570023 43.62471461 C254.06557962 43.62797041 248.49546593 43.63449218 242.92534924 43.641716 C227.50474679 43.66128355 212.08415078 43.6776868 196.66353512 43.68059254 C195.67650594 43.68078011 194.68947676 43.68096768 193.67253761 43.68116093 C191.6715649 43.68152718 189.67059218 43.68189088 187.66961947 43.68225204 C186.17967979 43.68252626 186.17967979 43.68252626 184.65964031 43.68280602 C183.66513547 43.68298656 182.67063062 43.68316711 181.64598927 43.68335313 C165.53053765 43.68689496 149.41521965 43.71391717 133.29981437 43.7513039 C116.75626039 43.78937691 100.21277273 43.80874994 83.66917396 43.80905205 C74.3797685 43.80963685 65.09052241 43.81814367 55.80115795 43.84704971 C47.89117146 43.87155017 39.98140245 43.87885557 32.07138827 43.86380219 C28.03587922 43.8566277 24.00079974 43.85751348 19.96533871 43.88021278 C16.26891235 43.90080571 12.57324572 43.89820039 8.87682757 43.87733794 C6.91051208 43.87219164 4.94417935 43.89162032 2.97796273 43.91199964 C-5.2213659 43.8340507 -10.32713402 42.50184502 -16.29059386 36.81460184 C-20.66586816 32.01355347 -22.29705906 26.93503792 -22.08645344 20.46820641 C-21.09027766 13.3310483 -18.27470888 7.89744552 -12.65676594 3.41351891 C-8.46844449 0.83609032 -4.89605142 0.00688196 0 0 Z " fill="#3E4A59" transform="translate(95.77785968780518,468.74273109436035)"/>
<path d="M0 0 C105.6 0 211.2 0 320 0 C320 14.19 320 28.38 320 43 C214.4 43 108.8 43 0 43 C0 28.81 0 14.62 0 0 Z " fill="#333C49" transform="translate(96,427)"/>
<path d="M0 0 C105.6 0 211.2 0 320 0 C320 14.19 320 28.38 320 43 C214.4 43 108.8 43 0 43 C0 28.81 0 14.62 0 0 Z " fill="#323C49" transform="translate(96,64)"/>
<path d="M0 0 C0.66 0 1.32 0 2 0 C2.21914063 0.79921875 2.43828125 1.5984375 2.6640625 2.421875 C7.10383304 17.79864128 15.07661541 29.93093443 24 43 C57.66651248 92.30903205 57.66651248 92.30903205 53.5390625 122.35546875 C50.21765208 137.14551396 42.48761317 149.01744363 29.8125 157.375 C16.88221623 164.77657611 2.97198441 167.10908556 -11.6171875 164.3046875 C-26.00763201 160.27536304 -37.80597816 151.72159681 -45.49609375 138.875 C-52.84229345 124.83135591 -54.85616963 107.27442008 -50.125 92 C-43.57476564 72.83423402 -31.47237388 56.45024668 -20 40 C-11.28712741 27.45273261 -3.25137116 15.17306542 0 0 Z " fill="#404B5A" transform="translate(255,187)"/>
<path d="M0 0 C1.72115167 -0.00874829 1.72115167 -0.00874829 3.47707409 -0.01767331 C5.3688277 -0.01200433 5.3688277 -0.01200433 7.29879856 -0.00622082 C8.65162399 -0.00924074 10.00444771 -0.01312941 11.35726839 -0.01781338 C15.07832347 -0.02812272 18.79928251 -0.02590413 22.52034557 -0.02163279 C26.5320073 -0.01917089 30.54364559 -0.02817304 34.55529881 -0.03567028 C42.4158329 -0.04843413 50.27633285 -0.05020889 58.13687556 -0.04787002 C64.52451835 -0.04608862 70.91215075 -0.04783265 77.29979229 -0.05209446 C78.2081252 -0.05268965 79.11645811 -0.05328484 80.05231627 -0.05389806 C81.89745748 -0.05510978 83.74259869 -0.05632392 85.58773989 -0.05754044 C102.90008502 -0.06842241 120.21241068 -0.06625034 137.52475692 -0.06015559 C153.37060567 -0.05498551 169.21639297 -0.06624312 185.06222957 -0.08525381 C201.32439463 -0.10461476 217.58653059 -0.1128913 233.84870726 -0.10913056 C242.98203399 -0.10721591 252.1153084 -0.10973177 261.24862576 -0.1238451 C269.02361668 -0.13573766 276.79852307 -0.13718772 284.57351511 -0.12505493 C288.54171444 -0.11915133 292.50975901 -0.11810751 296.47794819 -0.13005733 C300.10929628 -0.14086589 303.74035944 -0.13787325 307.37169392 -0.12379565 C309.31038086 -0.11987247 311.24908023 -0.13073676 313.18773788 -0.14209253 C314.33778008 -0.13488598 315.48782227 -0.12767944 316.67271423 -0.12025452 C318.16119311 -0.12033704 318.16119311 -0.12033704 319.67974228 -0.12042123 C323.50329382 0.40666782 326.32773533 1.87677828 328.71177769 4.94197559 C330.10753756 9.63680427 330.07526398 13.69970711 328.14927769 18.12947559 C325.68952004 21.11632416 323.66845711 22.13126102 319.80509144 22.50632459 C318.81293454 22.50719137 317.82077764 22.50805814 316.79855537 22.50895119 C315.0774037 22.51769948 315.0774037 22.51769948 313.32148129 22.5266245 C311.42972767 22.52095552 311.42972767 22.52095552 309.49975681 22.515172 C308.14693139 22.51819192 306.79410767 22.5220806 305.44128698 22.52676457 C301.72023191 22.53707391 297.99927286 22.53485532 294.27820981 22.53058398 C290.26654807 22.52812207 286.25490978 22.53712423 282.24325657 22.54462147 C274.38272248 22.55738531 266.52222252 22.55916007 258.66167981 22.5568212 C252.27403703 22.55503981 245.88640463 22.55678384 239.49876308 22.56104565 C238.13626372 22.56193843 238.13626372 22.56193843 236.74623911 22.56284925 C234.9010979 22.56406097 233.05595669 22.56527511 231.21081548 22.56649163 C213.89847035 22.5773736 196.58614469 22.57520153 179.27379846 22.56910678 C163.4279497 22.5639367 147.5821624 22.57519431 131.73632581 22.594205 C115.47416075 22.61356594 99.21202478 22.62184249 82.94984812 22.61808175 C73.81652138 22.61616709 64.68324697 22.61868295 55.54992962 22.63279629 C47.7749387 22.64468885 40.0000323 22.64613891 32.22504026 22.63400612 C28.25684093 22.62810252 24.28879636 22.62705869 20.32060719 22.63900852 C16.6892591 22.64981707 13.05819593 22.64682443 9.42686146 22.63274684 C7.48817451 22.62882365 5.54947515 22.63968794 3.61081749 22.65104371 C2.4607753 22.64383717 1.3107331 22.63663063 0.12584114 22.6292057 C-1.36263774 22.62928823 -1.36263774 22.62928823 -2.8811869 22.62937242 C-6.70473845 22.10228337 -9.52917996 20.63217291 -11.91322231 17.56697559 C-13.30898219 12.87214692 -13.27670861 8.80924408 -11.35072231 4.37947559 C-8.09739691 0.42900904 -4.97509503 0.00434639 0 0 Z " fill="#3E4959" transform="translate(97.60072231292725,404.7455244064331)"/>
<path d="M0 0 C1.34630365 -0.00345815 2.69260446 -0.00822377 4.03889936 -0.01418173 C7.73268052 -0.0266998 11.426229 -0.02051778 15.12001097 -0.01122308 C19.10573946 -0.00443628 23.0914279 -0.01491194 27.07714844 -0.02316284 C34.88261635 -0.03650594 42.68799775 -0.03361998 50.49346907 -0.02492492 C56.83625424 -0.01815154 63.17901515 -0.01723015 69.5218029 -0.02049637 C70.42431411 -0.02095607 71.32682532 -0.02141577 72.25668536 -0.0218894 C74.0900695 -0.02284856 75.92345364 -0.0238212 77.75683778 -0.02480717 C94.94998099 -0.03336263 112.14307621 -0.02352423 129.33621155 -0.00740607 C144.09285301 0.00599953 158.84942367 0.00366733 173.60606384 -0.01016235 C190.73896575 -0.02621149 207.87182561 -0.03254104 225.00473398 -0.02332556 C226.83109215 -0.0223699 228.65745033 -0.02142679 230.48380852 -0.02049637 C231.83174821 -0.01980213 231.83174821 -0.01980213 233.206919 -0.01909386 C239.54354568 -0.01650214 245.88014571 -0.02087884 252.21676826 -0.02793503 C259.93682021 -0.03634272 267.65678062 -0.03408521 275.37682206 -0.0180928 C279.31667785 -0.01020056 283.25638095 -0.00713466 287.19623566 -0.01704025 C290.8016056 -0.02596791 294.40668106 -0.02108645 298.01202422 -0.0051076 C299.93669258 -0.00015961 301.86138132 -0.00997353 303.78602844 -0.02027929 C304.92787045 -0.01245605 306.06971246 -0.0046328 307.24615574 0.00342751 C308.72389511 0.00415809 308.72389511 0.00415809 310.23148781 0.00490344 C314.19655988 0.55624565 316.80877784 2.37042956 319.74839783 5.00595093 C321.61001104 8.72917735 321.61132203 12.30661784 320.93589783 16.38095093 C319.14196115 19.25124961 317.95326506 20.87226731 314.93589783 22.38095093 C313.14272504 22.47887404 311.34587809 22.51195677 309.55003643 22.515172 C308.39961729 22.51962985 307.24919814 22.52408769 306.06391782 22.52868062 C304.78914116 22.52849626 303.5143645 22.5283119 302.20095825 22.52812195 C300.84161041 22.53141974 299.48226355 22.53514512 298.12291795 22.53926343 C294.37456888 22.54930113 290.62623582 22.55300305 286.87787521 22.55565274 C282.84027859 22.55955052 278.80269471 22.56912917 274.7651062 22.5778656 C265.00832656 22.59764426 255.25154586 22.6076977 245.49475119 22.61659339 C240.90342466 22.62097374 236.3120993 22.62634118 231.7207737 22.63158226 C216.4640931 22.64859545 201.20741323 22.66309073 185.9507246 22.670331 C181.98997179 22.67224099 178.02921898 22.67416131 174.06846619 22.67611694 C173.08400587 22.67660068 172.09954555 22.67708442 171.0852531 22.67758282 C155.12933492 22.68588726 139.17349161 22.71123073 123.21760615 22.74369762 C106.84702752 22.77673759 90.47648699 22.79477696 74.10587484 22.79797524 C64.90989339 22.80014312 55.71402114 22.80893224 46.51807213 22.83443642 C38.68812744 22.85610158 30.85831847 22.86421452 23.02834722 22.85446963 C19.03175691 22.84991281 15.03544685 22.85189088 11.03889465 22.87123108 C7.38149972 22.88877756 3.72459125 22.88793514 0.06719176 22.87233379 C-1.88552457 22.8688112 -3.8382455 22.88504738 -5.79089195 22.90193826 C-7.52825552 22.88906692 -7.52825552 22.88906692 -9.30071735 22.87593555 C-10.30019628 22.87691236 -11.2996752 22.87788917 -12.32944137 22.87889558 C-15.82641802 22.24214355 -17.51451825 20.80524304 -20.06410217 18.38095093 C-21.2270819 16.05499147 -21.23010909 14.59371862 -21.25160217 12.00595093 C-21.26578186 11.23509155 -21.27996155 10.46423218 -21.29457092 9.67001343 C-21.02411513 6.98379153 -20.64558773 5.58324887 -19.06410217 3.38095093 C-13.22184044 -0.72602447 -6.84260032 -0.03670505 0 0 Z " fill="#3E4959" transform="translate(106.06410217285156,105.61904907226563)"/>
<path d="M0 0 C52.8 0 105.6 0 160 0 C160 13.86 160 27.72 160 42 C107.2 42 54.4 42 0 42 C0 28.14 0 14.28 0 0 Z " fill="#262E37" transform="translate(256,427)"/>
<path d="M0 0 C52.8 0 105.6 0 160 0 C160 13.86 160 27.72 160 42 C107.2 42 54.4 42 0 42 C0 28.14 0 14.28 0 0 Z " fill="#262E37" transform="translate(256,64)"/>
<path d="M0 0 C28.38 0 56.76 0 86 0 C86 6.93 86 13.86 86 21 C57.62 21 29.24 21 0 21 C0 14.07 0 7.14 0 0 Z " fill="#E66847" transform="translate(309,0)"/>
<path d="M0 0 C3.46538816 4.35648798 4.07133087 9.38786318 5.1875 14.75 C5.5175 15.74 5.8475 16.73 6.1875 17.75 C9.04902347 18.60072987 9.04902347 18.60072987 12.4375 19.125 C18.01206919 20.28025612 20.8655704 21.12302663 24.1875 25.75 C25.62054064 28.61608129 25.49394155 30.56300783 25.1875 33.75 C22.02960526 39.32894737 22.02960526 39.32894737 19.1875 40.75 C9.05680226 41.64821593 0.71032502 40.35527262 -7.5625 34.25 C-12.83974701 29.38542871 -17.38242431 20.62970496 -18.015625 13.4453125 C-18.17702573 4.59517227 -18.17702573 4.59517227 -14.8125 0.75 C-10.49047591 -2.61157429 -4.74136237 -2.10727216 0 0 Z " fill="#FBFBFC" transform="translate(241.8125,289.25)"/>
</svg>
